<?xml version="1.0" standalone="no"?>
<!DOCTYPE svg PUBLIC "-//W3C//DTD SVG 20010904//EN"
 "http://www.w3.org/TR/2001/REC-SVG-20010904/DTD/svg10.dtd">
<svg class="fill-white" version="1.0" xmlns="http://www.w3.org/2000/svg"
 width="512.000000pt" height="512.000000pt" viewBox="0 0 512.000000 512.000000"
 preserveAspectRatio="xMidYMid meet">

<g transform="translate(0.000000,512.000000) scale(0.100000,-0.100000)"
fill="#000000" stroke="none">
<path d="M1268 3755 c-14 -14 -28 -39 -32 -56 -3 -18 -6 -206 -6 -419 l0 -388
-117 -4 c-95 -4 -129 -9 -171 -28 -64 -28 -116 -85 -131 -145 -7 -30 -11 -245
-11 -665 0 -662 1 -674 48 -699 12 -6 39 -11 60 -11 33 0 45 6 66 31 25 30 26
34 26 175 l0 144 1560 0 1560 0 0 -144 c0 -141 1 -145 26 -175 21 -25 33 -31
66 -31 52 0 77 14 94 55 19 46 21 1249 2 1323 -14 57 -84 131 -143 151 -22 7
-93 15 -157 18 l-118 5 0 388 c0 213 -3 401 -6 419 -4 17 -18 42 -32 56 l-25
25 -1267 0 -1267 0 -25 -25z m2422 -520 l0 -345 -110 0 -110 0 0 170 c0 245
20 233 -393 228 l-259 -3 -29 -33 -29 -32 0 -165 0 -165 -200 0 -200 0 0 155
c0 251 10 245 -362 245 -368 0 -358 7 -358 -242 l0 -158 -105 0 -105 0 0 345
0 345 1130 0 1130 0 0 -345z m-1532 -247 l3 -98 -161 0 -160 0 0 100 0 101
158 -3 157 -3 3 -97z m1112 2 l0 -100 -155 0 -155 0 0 100 0 100 155 0 155 0
0 -100z m836 -314 c12 -5 14 -63 14 -384 0 -281 -3 -381 -12 -390 -19 -19
-3081 -17 -3097 2 -8 9 -10 121 -9 392 l3 378 23 6 c30 7 3059 3 3078 -4z"/>
</g>
</svg>
