<?xml version="1.0" standalone="no"?>
<!DOCTYPE svg PUBLIC "-//W3C//DTD SVG 20010904//EN"
 "http://www.w3.org/TR/2001/REC-SVG-20010904/DTD/svg10.dtd">
<svg version="1.0" xmlns="http://www.w3.org/2000/svg" width="126.000000pt" height="126.000000pt" viewBox="0 0 512.000000 512.000000" preserveAspectRatio="xMidYMid meet">
<g transform="translate(0.000000,512.000000) scale(0.100000,-0.100000)" fill="#ffffff" stroke="none">
<path d="M3571 4277 c-21 -24 -22 -36 -66 -1043 -25 -560 -47 -1056 -51 -1101
l-6 -83 -1185 0 c-909 0 -1195 -3 -1227 -12 -53 -16 -118 -81 -134 -134 -15
-53 -17 -641 -1 -697 13 -49 63 -105 114 -128 34 -16 68 -19 243 -19 l202 0 0
-95 c0 -88 2 -98 25 -120 32 -33 78 -33 110 0 23 22 25 32 25 120 l0 95 1090
0 1090 0 0 -94 c0 -79 3 -97 21 -120 28 -35 80 -36 114 -1 23 22 25 32 25 120
l0 95 203 0 c174 0 208 3 242 19 51 23 101 79 114 128 16 56 14 644 -1 697
-16 53 -81 118 -134 134 -23 6 -94 12 -158 12 -64 0 -116 1 -116 3 -1 1 -34
496 -74 1100 -73 1083 -74 1099 -97 1123 -22 24 -26 24 -184 24 -156 0 -162
-1 -184 -23z m329 -1496 c0 -21 3 -66 6 -100 l7 -61 -137 0 -136 0 0 84 c0 46
3 91 6 100 5 13 26 16 130 16 l124 0 0 -39z m24 -378 c3 -21 8 -87 11 -148 3
-60 8 -131 11 -157 l6 -48 -171 0 -171 0 5 103 c3 56 8 144 11 195 l6 92 143
0 143 0 6 -37z m428 -530 c17 -15 18 -38 18 -319 0 -262 -2 -305 -16 -318 -14
-14 -177 -16 -1644 -16 -1467 0 -1630 2 -1644 16 -14 13 -16 56 -16 316 0 266
2 304 17 320 15 17 80 18 1641 18 1498 0 1627 -1 1644 -17z"></path>
<path d="M1368 1714 c-38 -20 -61 -68 -54 -109 16 -86 117 -117 180 -55 52 51 32 146 -36 169 -40 14 -57 13 -90 -5z"></path>
<path d="M2022 1474 c-13 -9 -27 -27 -32 -40 -11 -29 5 -81 30 -94 20 -11 917 -14 945 -4 24 10 46 60 39 89 -3 14 -18 34 -31 45 -25 19 -42 20 -477 20 -398 0 -454 -2 -474 -16z"></path>
<path d="M3223 1480 c-34 -14 -56 -54 -48 -90 12 -55 31 -60 220 -60 166 0 172 1 193 23 27 29 28 77 3 108 -19 23 -24 24 -183 26 -89 1 -173 -2 -185 -7z"></path>
<path d="M3823 1480 c-34 -14 -56 -54 -48 -90 12 -55 31 -60 220 -60 166 0 172 1 193 23 27 29 28 77 3 108 -19 23 -24 24 -183 26 -89 1 -173 -2 -185 -7z"></path>
<path d="M1230 3469 c-75 -13 -205 -53 -285 -89 -156 -70 -355 -228 -355 -282 0 -43 36 -78 79 -78 31 0 48 9 102 56 193 167 397 244 650 244 243 0 469 -85 647 -244 50 -44 70 -56 96 -56 49 0 80 29 80 75 0 33 -7 44 -53 87 -158 146 -351 241 -572 283 -89 16 -298 19 -389 4z"></path>
<path d="M1322 3079 c-134 -17 -272 -79 -381 -169 -33 -27 -61 -60 -65 -75 -14 -57 50 -119 100 -96 13 5 49 31 79 56 111 90 223 128 370 127 144 -1 273 -50 380 -144 57 -50 105 -57 136 -19 32 39 25 88 -18 129 -104 98 -266 172 -416 192 -82 11 -98 11 -185 -1z"></path>
<path d="M1305 2727 c-60 -20 -102 -44 -146 -84 -32 -29 -39 -42 -39 -73 0 -30 6 -43 26 -59 37 -29 64 -26 114 10 113 82 212 80 329 -6 43 -32 75 -32 106 0 39 38 34 80 -17 128 -66 62 -136 90 -243 94 -56 2 -105 -2 -130 -10z"></path>
</g>
</svg>
