<?xml version="1.0" standalone="no"?>
<!DOCTYPE svg PUBLIC "-//W3C//DTD SVG 20010904//EN"
 "http://www.w3.org/TR/2001/REC-SVG-20010904/DTD/svg10.dtd">
<svg version="1.0" xmlns="http://www.w3.org/2000/svg"
 width="512.000000pt" height="512.000000pt" viewBox="0 0 512.000000 512.000000"
 preserveAspectRatio="xMidYMid meet">

<g transform="translate(0.000000,512.000000) scale(0.100000,-0.100000)"
fill="#000000" stroke="none">
<path d="M2411 5104 c-253 -68 -410 -331 -346 -579 67 -256 329 -415 580 -350
239 63 397 300 357 538 -48 280 -324 463 -591 391z m251 -164 c73 -34 124 -85
160 -158 28 -57 33 -77 33 -142 0 -65 -5 -85 -33 -142 -36 -73 -86 -123 -161
-159 -36 -18 -64 -23 -131 -23 -73 -1 -93 3 -141 27 -66 32 -132 99 -162 165
-31 66 -31 198 -1 263 41 89 123 160 214 186 61 18 166 10 222 -17z"/>
<path d="M2425 3966 c-148 -36 -267 -142 -326 -291 -24 -60 -24 -62 -27 -520
-3 -457 -3 -461 18 -488 24 -31 73 -37 106 -13 18 14 19 34 24 478 l5 463 28
57 c55 111 153 173 277 173 87 0 145 -22 207 -78 73 -67 103 -159 103 -322 0
-142 -52 -129 544 -135 481 -5 502 -6 528 -25 33 -24 68 -91 68 -130 0 -39
-35 -106 -68 -130 -26 -19 -47 -20 -528 -25 -476 -5 -503 -6 -523 -24 -21 -19
-21 -25 -21 -411 0 -386 0 -392 21 -411 20 -18 48 -19 568 -24 607 -6 579 -2
661 -76 53 -48 67 -76 161 -329 82 -219 98 -245 149 -245 31 0 70 39 70 71 0
27 -166 465 -194 513 -37 63 -128 143 -203 179 l-68 32 -507 3 -508 3 0 284 0
284 463 3 462 3 54 30 c96 53 161 162 161 270 0 108 -65 217 -161 270 l-54 30
-462 3 -463 3 0 42 c0 147 -55 282 -150 370 -117 108 -267 149 -415 113z"></path>
<path d="M1429 3446 c-31 -12 -96 -47 -145 -76 -409 -245 -704 -632 -824
-1085 -44 -163 -60 -289 -60 -473 0 -231 28 -402 101 -609 37 -106 149 -330
184 -367 29 -31 63 -33 99 -5 39 30 34 66 -24 167 -99 174 -173 395 -200 598
-18 134 -8 422 19 548 90 420 322 775 667 1022 122 87 252 154 298 154 135 0
208 -148 126 -253 -12 -14 -54 -44 -94 -66 -294 -163 -517 -418 -629 -721 -61
-163 -81 -280 -80 -470 0 -174 16 -279 63 -421 132 -395 459 -722 850 -853
151 -50 231 -61 435 -61 172 1 200 3 297 27 305 77 550 232 750 476 33 40 72
79 88 87 32 17 96 20 132 6 62 -23 107 -107 94 -175 -9 -48 -81 -142 -201
-261 -266 -265 -585 -421 -962 -470 -250 -33 -481 -9 -734 75 -241 80 -438
201 -631 387 -79 77 -102 93 -127 93 -42 0 -71 -31 -71 -76 0 -31 10 -45 79
-114 585 -578 1467 -694 2180 -288 141 80 240 158 372 288 228 227 280 334
234 488 -35 118 -143 202 -271 210 -136 9 -179 -18 -357 -220 -165 -188 -422
-327 -687 -374 -136 -23 -350 -15 -481 19 -449 117 -785 467 -882 916 -27 125
-28 359 -3 472 80 365 298 658 614 827 43 23 96 58 117 79 90 88 117 233 62
345 -74 150 -246 217 -398 154z"></path>
<path d="M2091 2454 c-20 -25 -21 -40 -21 -208 0 -201 12 -276 58 -360 43 -80
120 -151 209 -194 l78 -37 605 -5 c500 -5 611 -8 642 -20 64 -26 126 -77 155
-129 16 -27 96 -228 178 -446 141 -378 150 -399 196 -450 97 -105 232 -131
361 -67 111 54 167 145 168 269 0 66 -7 91 -76 275 -41 112 -84 212 -94 222
-41 42 -120 12 -120 -47 0 -16 32 -114 70 -218 71 -191 82 -247 59 -292 -52
-102 -170 -124 -248 -48 -34 32 -53 77 -185 431 -81 217 -162 419 -179 449
-38 64 -113 134 -180 168 -99 50 -138 53 -738 53 -632 0 -612 -2 -703 81 -89
82 -99 115 -106 362 -5 192 -7 210 -24 223 -33 23 -82 18 -105 -12z"/>
</g>
</svg>
