<?xml version="1.0" ?><svg viewBox="0 0 512 512" xmlns="http://www.w3.org/2000/svg"><g data-name="Router/Wifi" id="Router_Wifi"><path d="M113.93,249.2964A8,8,0,1,0,125.2433,260.61a23.5717,23.5717,0,0,1,33.2969,0,8,8,0,1,0,11.3134-11.3135A39.5893,39.5893,0,0,0,113.93,249.2964Z"/><path d="M100.9513,236.3179a57.9649,57.9649,0,0,1,81.8809,0,8,8,0,1,0,11.3144-11.3135,73.9832,73.9832,0,0,0-104.51,0,8,8,0,1,0,11.3145,11.3135Z"/><path d="M210.97,208.1792a8,8,0,0,0,11.3145-11.3135,113.82,113.82,0,0,0-160.7852,0,8,8,0,0,0,11.3145,11.3135A97.8018,97.8018,0,0,1,210.97,208.1792Z"/><path d="M432.1554,307.1812H410.8715L396.3683,89.1353a8,8,0,0,0-7.9824-7.4693H362.8038a8,8,0,0,0-7.9922,7.6455l-9.6608,217.87H109.8448A20.7125,20.7125,0,0,0,89.1564,327.87V385.3a20.7126,20.7126,0,0,0,20.6884,20.689h36.167V422.334a8,8,0,1,0,16,0V405.9888H379.9884V422.334a8,8,0,0,0,16,0V405.9888h36.167A20.7127,20.7127,0,0,0,452.8439,385.3V327.87A20.7126,20.7126,0,0,0,432.1554,307.1812Zm-42.4746-77.509,1.374,20.6613H363.6871l.916-20.6613Zm-26.7571,37.8737H392.2l2.6363,39.6353h-33.67ZM436.8439,385.3a4.6942,4.6942,0,0,1-4.6885,4.689H109.8448a4.6942,4.6942,0,0,1-4.6884-4.689V327.87a4.6942,4.6942,0,0,1,4.6884-4.6889H432.1554a4.6942,4.6942,0,0,1,4.6885,4.6889Z"/><rect height="16.3591" rx="8.1795" width="102.2358" x="198.3903" y="363.1295"/><path d="M413.3859,363.3091H385.2394a8,8,0,0,0,0,16h28.1465a8,8,0,0,0,0-16Z"/><path d="M353.3859,363.3091H325.2394a8,8,0,0,0,0,16h28.1465a8,8,0,0,0,0-16Z"/><circle cx="141.8917" cy="349.8857" r="10.7117"/></g></svg>